#N struct mygrid float x symbol xaxis;
#N struct mymap float x float y float col symbol name symbol title
float s;
#N canvas 806 25 450 300 10;
#N canvas 19 348 1237 414 data 0;
#X scalar mygrid 10 symbol \;;
#X scalar mygrid 15 symbol \;;
#X scalar mygrid 20 symbol \;;
#X scalar mygrid 25 symbol \;;
#X scalar mygrid 30 symbol \;;
#X scalar mygrid 35 symbol \;;
#X scalar mygrid 40 symbol \;;
#X scalar mygrid 45 symbol \;;
#X scalar mygrid 50 symbol \;;
#X scalar mygrid 55 symbol \;;
#X scalar mygrid 60 symbol \;;
#X scalar mygrid 65 symbol \;;
#X scalar mygrid 70 symbol \;;
#X scalar mygrid 75 symbol \;;
#X scalar mygrid 80 symbol \;;
#X scalar mygrid 85 symbol \;;
#X scalar mygrid 90 symbol \;;
#X scalar mygrid 95 symbol \;;
#X scalar mygrid 100 symbol \;;
#X scalar mygrid 105 symbol \;;
#X scalar mygrid 110 symbol \;;
#X scalar mygrid 115 symbol \;;
#X scalar mygrid 120 symbol \;;
#X scalar mygrid 125 symbol \;;
#X scalar mygrid 130 symbol \;;
#X scalar mygrid 135 symbol \;;
#X scalar mygrid 140 symbol \;;
#X scalar mygrid 145 symbol \;;
#X scalar mygrid 150 symbol \;;
#X scalar mygrid 155 symbol \;;
#X scalar mygrid 160 symbol \;;
#X scalar mygrid 165 symbol \;;
#X scalar mygrid 170 symbol \;;
#X scalar mygrid 175 symbol \;;
#X scalar mygrid 180 symbol \;;
#X scalar mygrid 185 symbol \;;
#X scalar mygrid 190 symbol \;;
#X scalar mygrid 195 symbol \;;
#X scalar mygrid 200 symbol \;;
#X scalar mygrid 205 symbol \;;
#X scalar mygrid 210 symbol \;;
#X scalar mygrid 215 symbol \;;
#X scalar mygrid 220 symbol \;;
#X scalar mygrid 225 symbol \;;
#X scalar mygrid 230 symbol \;;
#X scalar mygrid 235 symbol \;;
#X scalar mygrid 240 symbol \;;
#X scalar mygrid 245 symbol \;;
#X scalar mygrid 250 symbol \;;
#X scalar mygrid 255 symbol \;;
#X scalar mygrid 260 symbol \;;
#X scalar mygrid 265 symbol \;;
#X scalar mygrid 270 symbol \;;
#X scalar mygrid 275 symbol \;;
#X scalar mygrid 280 symbol \;;
#X scalar mygrid 285 symbol \;;
#X scalar mygrid 290 symbol \;;
#X scalar mygrid 295 symbol \;;
#X scalar mygrid 300 symbol \;;
#X scalar mygrid 305 symbol \;;
#X scalar mygrid 310 symbol \;;
#X scalar mygrid 315 symbol \;;
#X scalar mygrid 320 symbol \;;
#X scalar mygrid 325 symbol \;;
#X scalar mygrid 330 symbol \;;
#X scalar mygrid 335 symbol \;;
#X scalar mygrid 340 symbol \;;
#X scalar mygrid 345 symbol \;;
#X scalar mygrid 350 symbol \;;
#X scalar mygrid 355 symbol \;;
#X scalar mygrid 360 symbol \;;
#X scalar mygrid 365 symbol \;;
#X scalar mygrid 370 symbol \;;
#X scalar mygrid 375 symbol \;;
#X scalar mygrid 380 symbol \;;
#X scalar mygrid 385 symbol \;;
#X scalar mygrid 390 symbol \;;
#X scalar mymap 730 5110 900 Kane:14:Sound_unseen:_A float 0 \;;
#X scalar mymap 620 5050 900 Sterne:03:The_audible_pas float 0 \;;
#X scalar mymap 620 5060 900 Sterne:03:The_audible_pas float 0 \;;
#X scalar mymap 350 660 900 Derrida:76:Of_grammatology float 0 \;;
#X scalar mymap 350 670 900 Derrida:76:Of_grammatology float 0 \;;
#X scalar mymap 350 680 900 Derrida:76:Of_grammatology float 0 \;;
#X scalar mymap 350 690 900 Derrida:76:Of_grammatology float 0 \;;
#X scalar mymap 350 700 900 Derrida:76:Of_grammatology float 0 \;;
#X scalar mymap 350 4450 900 Derrida:76:Of_grammatology float 0 \;
;
#X scalar mymap 350 4790 900 Derrida:76:Of_grammatology float 0 \;
;
#X scalar mymap 350 4800 900 Derrida:76:Of_grammatology float 0 \;
;
#X scalar mymap 350 4810 900 Derrida:76:Of_grammatology float 0 \;
;
#X scalar mymap 350 4830 900 Derrida:76:Of_grammatology float 0 \;
;
#X scalar mymap 530 4770 900 Borges:94:Ficciones float 0 \;;
#X scalar mymap 690 3750 900 Oliver:10:The_mano_contro float 0 \;;
#X scalar mymap 690 4660 900 Oliver:10:The_mano_contro float 0 \;;
#X scalar mymap 690 4670 900 Oliver:10:The_mano_contro float 0 \;;
#X scalar mymap 670 3710 900 Oliver:08:The_silent_drum float 0 \;;
#X scalar mymap 670 3720 900 Oliver:08:The_silent_drum float 0 \;;
#X scalar mymap 670 3730 900 Oliver:08:The_silent_drum float 0 \;;
#X scalar mymap 670 3740 900 Oliver:08:The_silent_drum float 0 \;;
#X scalar mymap 670 4560 900 Oliver:08:The_silent_drum float 0 \;;
#X scalar mymap 670 4640 900 Oliver:08:The_silent_drum float 0 \;;
#X scalar mymap 290 4190 900 Lucier:70:I_am_sitting_in float 0 \;;
#X scalar mymap 290 4380 900 Lucier:70:I_am_sitting_in float 0 \;;
#X scalar mymap 290 4390 900 Lucier:70:I_am_sitting_in float 0 \;;
#X scalar mymap 290 4400 900 Lucier:70:I_am_sitting_in float 0 \;;
#X scalar mymap 700 4420 900 Kroher:11:Acoustic_feedba float 0 \;;
#X scalar mymap 590 2040 900 Barrett:00:Viva_la_selva float 0 \;;
#X scalar mymap 590 2050 900 Barrett:00:Viva_la_selva float 0 \;;
#X scalar mymap 570 1990 900 Klein:98:The_wolves_of_b float 0 \;;
#X scalar mymap 570 2000 900 Klein:98:The_wolves_of_b float 0 \;;
#X scalar mymap 570 2020 900 Klein:98:The_wolves_of_b float 0 \;;
#X scalar mymap 760 2010 900 Klein:17:On_my_compositi float 0 \;;
#X scalar mymap 660 3490 900 Collins:07:Audiovisual_con float 0 \;
;
#X scalar mymap 660 3500 900 Collins:07:Audiovisual_con float 0 \;
;
#X scalar mymap 710 4010 900 Sterne:12:MP3:_The_meanin float 0 \;;
#X scalar mymap 590 3790 900 Choi:00:Voices_in_ruins float 0 \;;
#X scalar mymap 590 1210 900 Tzanetakis:00:MARSYAS:_A_fram float 0
\;;
#X scalar mymap 740 1190 900 Collins:15:The_ubuweb_elec float 0 \;
;
#X scalar mymap 630 3550 900 Sturm:04:MATConcat:_An_a float 0 \;;
#X scalar mymap 750 6110 900 Nilson:16:Collected_rewri float 0 \;;
#X scalar mymap 650 4070 900 Collins:06:Towards_autonom float 0 \;
;
#X scalar mymap 740 4100 900 zmölnig:15:LIVE_coding:_AN float 0 \;
;
#X scalar mymap 620 4080 900 Collins:03:Live_coding_in_ float 0 \;
;
#X scalar mymap 760 3920 900 Carter:17:On_the_expressi float 0 \;;
#X scalar mymap 760 3930 900 Carter:17:On_the_expressi float 0 \;;
#X scalar mymap 480 3680 900 Boie:89:The_radio_drum_ float 0 \;;
#X scalar mymap 620 3310 900 Wang:03:ChucK:_A_concur float 0 \;;
#X scalar mymap 410 3060 900 Rodet:82:The_CHANT_proje float 0 \;;
#X scalar mymap 600 3100 900 Didkovsky:01:Java_music_spec float 0 \;
;
#X scalar mymap 490 3250 900 Lansky:90:The_architectur float 0 \;;
#X scalar mymap 440 3030 900 Rosenboom:85:HMSL_(hierarchi float 0 \;
;
#X scalar mymap 440 3040 900 Rosenboom:85:HMSL_(hierarchi float 0 \;
;
#X scalar mymap 430 2920 900 Vercoe:84:The_synthetic_p float 0 \;;
#X scalar mymap 500 2930 900 Puckette:91:Something_digit float 0 \;
;
#X scalar mymap 440 2910 900 Loy:85:Musicians_make_ float 0 \;;
#X scalar mymap 620 2310 900 Walker:03:ICAD_2004:_The_ float 0 \;;
#X scalar mymap 660 2300 900 Worrall:07:ICAD_2004:_The_ float 0 \;
;
#X scalar mymap 730 2290 900 Hildebrandt:14:A_Sonification_ float 0
\;;
#X scalar mymap 680 2280 900 Beilharz:09:Aesthetic_sonif float 0 \;
;
#X scalar mymap 570 2270 900 Lodha:98:MUSE:_A_musical float 0 \;;
#X scalar mymap 550 2250 900 Wilson:96:Listen:_A_data_ float 0 \;;
#X scalar mymap 760 2080 900 Frid:17:Sonification_of float 0 \;;
#X scalar mymap 760 2090 900 Frid:17:Sonification_of float 0 \;;
#X scalar mymap 610 1130 900 Tzanetakis:02:Musical_genre_c float 0
\;;
#X scalar mymap 610 1280 900 Tzanetakis:02:Musical_genre_c float 0
\;;
#X scalar mymap 700 840 900 Kamde:11:A_survey_on_web float 0 \;;
#X scalar mymap 770 1660 900 Donahue:18:Adversarial_Aud float 0 \;
;
#X scalar mymap 670 1140 900 Dinuzzo:08:Client-server_m float 0 \;
;
#X scalar mymap 670 1360 900 Dinuzzo:08:Client-server_m float 0 \;
;
#X scalar mymap 690 1350 900 Correa:10:Musical_genres: float 0 \;;
#X scalar mymap 720 1640 900 Nagavi:13:An_extensive_an float 0 \;;
#X scalar mymap 730 1630 900 Nagavi:14:Progressive_fil float 0 \;;
#X scalar mymap 720 1620 900 Brzezinski-Spiczak:13:Music_files_sea
float 0 \;;
#X scalar mymap 730 1340 900 Mitra:14:An_efficient_fe float 0 \;;
#X scalar mymap 760 1330 900 Wang:17:Classical_music float 0 \;;
#X scalar mymap 760 1490 900 Stoller:17:Adversarial_sem float 0 \;
;
#X scalar mymap 770 1320 900 Dehkordi:18:Music_genre_cla float 0 \;
;
#X scalar mymap 650 3560 900 Schwarz:06:Real-time_corpu float 0 \;
;
#X scalar mymap 650 3440 900 Schwarz:06:Concatenative_s float 0 \;
;
#X scalar mymap 650 3450 900 Schwarz:06:Concatenative_s float 0 \;
;
#X scalar mymap 660 2170 900 Thiebaut:07:How_musical_are float 0 \;
;
#X scalar mymap 710 2160 900 Connes:12:The_music_of_sh float 0 \;;
#X scalar mymap 770 1240 900 Peron:18:Pattern_Recogni float 0 \;;
#X scalar mymap 700 1200 900 Yolk:11:UNFOLDING_the_p float 0 \;;
#X scalar mymap 670 4150 900 Bloch:08:Introducing_vid float 0 \;;
#X scalar mymap 580 4140 900 Assayag:99:Guessing_the_co float 0 \;
;
#X scalar mymap 770 1410 900 Delbouys:18:Music_mood_dete float 0 \;
;
#X scalar mymap 560 2690 900 Selfridge-Field:97:Beyond_midi:_Th float
0 \;;
#X scalar mymap 460 5350 900 Cope:87:Experiments_in_ float 0 \;;
#X scalar mymap 460 5380 900 Cope:87:Experiments_in_ float 0 \;;
#X scalar mymap 460 5390 900 Cope:87:Experiments_in_ float 0 \;;
#X scalar mymap 350 2610 900 Truax:76:A_comunicationa float 0 \;;
#X scalar mymap 350 2630 900 Truax:76:A_comunicationa float 0 \;;
#X scalar mymap 350 5400 900 Truax:76:A_comunicationa float 0 \;;
#X scalar mymap 390 2590 900 Truax:80:The_inverse_rel float 0 \;;
#X scalar mymap 390 2640 900 Truax:80:The_inverse_rel float 0 \;;
#X scalar mymap 580 2600 900 Laske:99:Otto_laske_:_Na float 0 \;;
#X scalar mymap 750 1540 900 Serizel:16:Machine_listeni float 0 \;
;
#X scalar mymap 450 2650 900 Emmerson:86:The_language_of float 0 \;
;
#X scalar mymap 450 2660 900 Emmerson:86:The_language_of float 0 \;
;
#X scalar mymap 450 2670 900 Emmerson:86:The_language_of float 0 \;
;
#X scalar mymap 320 2420 900 Truax:73:The_computer_co float 0 \;;
#X scalar mymap 320 2620 900 Truax:73:The_computer_co float 0 \;;
#X scalar mymap 510 900 900 Rowe:92:Interactive_mus float 0 \;;
#X scalar mymap 510 4130 900 Rowe:92:Interactive_mus float 0 \;;
#X scalar mymap 510 5900 900 Rowe:92:Interactive_mus float 0 \;;
#X scalar mymap 510 5910 900 Rowe:92:Interactive_mus float 0 \;;
#X scalar mymap 510 5920 900 Rowe:92:Interactive_mus float 0 \;;
#X scalar mymap 510 5980 900 Rowe:92:Interactive_mus float 0 \;;
#X scalar mymap 640 1020 900 Ariza:05:An_open_design_ float 0 \;;
#X scalar mymap 640 1030 900 Ariza:05:An_open_design_ float 0 \;;
#X scalar mymap 640 3410 900 Ariza:05:An_open_design_ float 0 \;;
#X scalar mymap 640 5400 900 Ariza:05:An_open_design_ float 0 \;;
#X scalar mymap 640 5620 900 Ariza:05:An_open_design_ float 0 \;;
#X scalar mymap 640 5660 900 Ariza:05:An_open_design_ float 0 \;;
#X scalar mymap 640 5670 900 Ariza:05:An_open_design_ float 0 \;;
#X scalar mymap 640 5680 900 Ariza:05:An_open_design_ float 0 \;;
#X scalar mymap 640 5690 900 Ariza:05:An_open_design_ float 0 \;;
#X scalar mymap 640 5700 900 Ariza:05:An_open_design_ float 0 \;;
#X scalar mymap 640 5870 900 Ariza:05:An_open_design_ float 0 \;;
#X scalar mymap 360 2340 900 Buxton:77:A_composer’s_ float 0 \;;
#X scalar mymap 270 250 900 Barthes:68:Elements_of_sem float 0 \;;
#X scalar mymap 270 260 900 Barthes:68:Elements_of_sem float 0 \;;
#X scalar mymap 270 270 900 Barthes:68:Elements_of_sem float 0 \;;
#X scalar mymap 780 590 900 Oviedo:19:Memoria float 0 \;;
#X scalar mymap 780 620 900 Oviedo:19:Memoria float 0 \;;
#X scalar mymap 780 630 900 Oviedo:19:Memoria float 0 \;;
#X scalar mymap 780 650 900 Oviedo:19:Memoria float 0 \;;
#X scalar mymap 780 730 900 Oviedo:19:Memoria float 0 \;;
#X scalar mymap 590 150 900 Cascone:00:The_aesthetics_ float 0 \;;
#X scalar mymap 590 710 900 Cascone:00:The_aesthetics_ float 0 \;;
#X scalar mymap 590 720 900 Cascone:00:The_aesthetics_ float 0 \;;
#X scalar mymap 590 6130 900 Cascone:00:The_aesthetics_ float 0 \;
;
#X scalar mymap 590 6140 900 Cascone:00:The_aesthetics_ float 0 \;
;
#X scalar mymap 590 6150 900 Cascone:00:The_aesthetics_ float 0 \;
;
#X scalar mymap 590 6160 900 Cascone:00:The_aesthetics_ float 0 \;
;
#X scalar mymap 590 6170 900 Cascone:00:The_aesthetics_ float 0 \;
;
#X scalar mymap 590 6180 900 Cascone:00:The_aesthetics_ float 0 \;
;
#X scalar mymap 590 6190 900 Cascone:00:The_aesthetics_ float 0 \;
;
#X scalar mymap 590 6200 900 Cascone:00:The_aesthetics_ float 0 \;
;
#X scalar mymap 390 5730 900 Roads:80:Interview_with_ float 0 \;;
#X scalar mymap 390 5740 900 Roads:80:Interview_with_ float 0 \;;
#X scalar mymap 220 820 900 Mathews:63:The_digital_com float 0 \;;
#X scalar mymap 220 5710 900 Mathews:63:The_digital_com float 0 \;
;
#X scalar mymap 220 5720 900 Mathews:63:The_digital_com float 0 \;
;
#X scalar mymap 220 5810 900 Mathews:63:The_digital_com float 0 \;
;
#X scalar mymap 220 5820 900 Mathews:63:The_digital_com float 0 \;
;
#X scalar mymap 220 5830 900 Mathews:63:The_digital_com float 0 \;
;
#X scalar mymap 220 5840 900 Mathews:63:The_digital_com float 0 \;
;
#X scalar mymap 220 5860 900 Mathews:63:The_digital_com float 0 \;
;
#X scalar mymap 220 5880 900 Mathews:63:The_digital_com float 0 \;
;
#X scalar mymap 520 5790 900 Rowe:93:Editor’s_note float 0 \;;
#X scalar mymap 520 5970 900 Rowe:93:Editor’s_note float 0 \;;
#X scalar mymap 520 6010 900 Rowe:93:Editor’s_note float 0 \;;
#X scalar mymap 520 6020 900 Rowe:93:Editor’s_note float 0 \;;
#X scalar mymap 520 6030 900 Rowe:93:Editor’s_note float 0 \;;
#X scalar mymap 520 6040 900 Rowe:93:Editor’s_note float 0 \;;
#X scalar mymap 520 6050 900 Rowe:93:Editor’s_note float 0 \;;
#X scalar mymap 580 140 900 Lewis:99:Interacting_wit float 0 \;;
#X scalar mymap 580 5790 900 Lewis:99:Interacting_wit float 0 \;;
#X scalar mymap 580 5800 900 Lewis:99:Interacting_wit float 0 \;;
#X scalar mymap 580 5940 900 Lewis:99:Interacting_wit float 0 \;;
#X scalar mymap 580 5950 900 Lewis:99:Interacting_wit float 0 \;;
#X scalar mymap 580 5960 900 Lewis:99:Interacting_wit float 0 \;;
#X scalar mymap 580 6060 900 Lewis:99:Interacting_wit float 0 \;;
#X scalar mymap 580 6070 900 Lewis:99:Interacting_wit float 0 \;;
#X scalar mymap 580 6080 900 Lewis:99:Interacting_wit float 0 \;;
#X scalar mymap 580 6090 900 Lewis:99:Interacting_wit float 0 \;;
#X scalar mymap 640 5640 900 Ariza:05:The_xenakis_sie float 0 \;;
#X scalar mymap 640 5650 900 Ariza:05:The_xenakis_sie float 0 \;;
#X scalar mymap 230 5610 900 N. Shepard:64:Circularity_in_ 3 \;;
#X scalar mymap 210 5600 900 Shanks:62:Calculation_of_ float 0 \;;
#X scalar mymap 210 5780 900 Shanks:62:Calculation_of_ float 0 \;;
#X scalar mymap 680 5490 900 Attali:09:Noise:_The_poli float 0 \;;
#X scalar mymap 670 5500 900 Szendy:08:Listen:_A_histo float 0 \;;
#X scalar mymap 670 5510 900 Szendy:08:Listen:_A_histo float 0 \;;
#X scalar mymap 670 5520 900 Szendy:08:Listen:_A_histo float 0 \;;
#X scalar mymap 460 5370 900 Cope:87:An_expert_syste float 0 \;;
#X scalar mymap 640 5430 900 Solomos:05:An_introduction float 0 \;
;
#X scalar mymap 640 5440 900 Solomos:05:An_introduction float 0 \;
;
#X scalar mymap 640 5450 900 Solomos:05:An_introduction float 0 \;
;
#X scalar mymap 660 5270 900 Puckette:07:On_timbre_stamp float 0 \;
;
#X scalar mymap 600 130 900 Vaggione:01:Some_ontologica float 0 \;
;
#X scalar mymap 600 830 900 Vaggione:01:Some_ontologica float 0 \;
;
#X scalar mymap 600 5290 900 Vaggione:01:Some_ontologica float 0 \;
;
#X scalar mymap 600 5310 900 Vaggione:01:Some_ontologica float 0 \;
;
#X scalar mymap 600 5930 900 Vaggione:01:Some_ontologica float 0 \;
;
#X scalar mymap 580 5360 900 IV:99:A_brief_history float 0 \;;
#X scalar mymap 720 5070 900 Eck:13:Between_air_and float 0 \;;
#X scalar mymap 720 5130 900 Morton:13:Hyperobjects:_P float 0 \;;
#X scalar mymap 720 640 900 Ernst:13:Digital_memory_ float 0 \;;
#X scalar mymap 720 4950 900 Ernst:13:Digital_memory_ float 0 \;;
#X scalar mymap 720 4960 900 Ernst:13:Digital_memory_ float 0 \;;
#X scalar mymap 720 4990 900 Ernst:13:Digital_memory_ float 0 \;;
#X scalar mymap 720 5000 900 Ernst:13:Digital_memory_ float 0 \;;
#X scalar mymap 720 5010 900 Ernst:13:Digital_memory_ float 0 \;;
#X scalar mymap 720 5020 900 Ernst:13:Digital_memory_ float 0 \;;
#X scalar mymap 720 5030 900 Ernst:13:Digital_memory_ float 0 \;;
#X scalar mymap 720 5040 900 Ernst:13:Digital_memory_ float 0 \;;
#X scalar mymap 410 4750 900 Derrida:82:Margins_of_phil float 0 \;
;
#X scalar mymap 410 5250 900 Derrida:82:Margins_of_phil float 0 \;
;
#X scalar mymap 410 5280 900 Derrida:82:Margins_of_phil float 0 \;
;
#X scalar mymap 780 860 900 Morin:19:Open_data_struc float 0 \;;
#X scalar mymap 780 870 900 Morin:19:Open_data_struc float 0 \;;
#X scalar mymap 320 1050 900 Bachman:73:The_programmer_ float 0 \;
;
#X scalar mymap 320 1060 900 Bachman:73:The_programmer_ float 0 \;
;
#X scalar mymap 320 4310 900 Bachman:73:The_programmer_ float 0 \;
;
#X scalar mymap 320 5760 900 Bachman:73:The_programmer_ float 0 \;
;
#X scalar mymap 290 1070 900 Codd:70:A_relational_mo float 0 \;;
#X scalar mymap 310 1080 900 Codd:72:Relational_comp float 0 \;;
#X scalar mymap 310 5590 900 Codd:72:Relational_comp float 0 \;;
#X scalar mymap 590 1040 900 Long:00:IMS_primer float 0 \;;
#X scalar mymap 560 1120 900 Buneman:97:Semistructured_ float 0 \;
;
#X scalar mymap 550 1100 900 Abiteboul:96:Querying_semi-s float 0 \;
;
#X scalar mymap 550 1110 900 Abiteboul:96:Querying_semi-s float 0 \;
;
#X scalar mymap 670 950 900 Angles:08:Survey_of_graph float 0 \;;
#X scalar mymap 670 960 900 Angles:08:Survey_of_graph float 0 \;;
#X scalar mymap 670 990 900 Angles:08:Survey_of_graph float 0 \;;
#X scalar mymap 670 1000 900 Angles:08:Survey_of_graph float 0 \;;
#X scalar mymap 670 1010 900 Angles:08:Survey_of_graph float 0 \;;
#X scalar mymap 670 1090 900 Angles:08:Survey_of_graph float 0 \;;
#X scalar mymap 540 940 900 Abiteboul:95:Foundations_of_ float 0 \;
;
#X scalar mymap 540 970 900 Abiteboul:95:Foundations_of_ float 0 \;
;
#X scalar mymap 540 980 900 Abiteboul:95:Foundations_of_ float 0 \;
;
#X scalar mymap 630 2260 900 Pauletto:04:A_toolkit_for_i float 0 \;
;
#X scalar mymap 610 2190 900 Ben-Tal:02:Sonart:_The_son float 0 \;
;
#X scalar mymap 590 2110 900 Ballora:00:Data_analysis_t float 0 \;
;
#X scalar mymap 630 3380 900 Amatriain:04:An_object-orien float 0 \;
;
#X scalar mymap 630 4020 900 Amatriain:04:An_object-orien float 0 \;
;
#X scalar mymap 610 2980 900 Puckette:02:Max_at_seventee float 0 \;
;
#X scalar mymap 610 3130 900 Puckette:02:Max_at_seventee float 0 \;
;
#X scalar mymap 610 3140 900 Puckette:02:Max_at_seventee float 0 \;
;
#X scalar mymap 610 3150 900 Puckette:02:Max_at_seventee float 0 \;
;
#X scalar mymap 590 3420 900 Schwarz:00:A_system_for_da float 0 \;
;
#X scalar mymap 570 910 900 Crowley:98:Data_structures float 0 \;;
#X scalar mymap 570 920 900 Crowley:98:Data_structures float 0 \;;
#X scalar mymap 480 3330 900 Caraty:89:"Vowel_recognit float 0 \;;
#X scalar mymap 340 2710 900 Erickson:75:"The_darms_proj float 0 \;
;
#X scalar mymap 750 2460 900 Buxton:16:Socializing_tec float 0 \;;
#X scalar mymap 750 2390 900 Buxton:16:Objed:_The_sssp float 0 \;;
#X scalar mymap 490 2770 900 Skinner:90:Music_software float 0 \;;
#X scalar mymap 490 2760 900 Skinner:90:Music_software float 0 \;;
#X scalar mymap 370 880 900 Kernighan:78:The_c_programmi float 0 \;
;
#X scalar mymap 440 2860 900 Diener:85:Formal_language float 0 \;;
#X scalar mymap 740 3620 900 Frisson:15:Designing_inter float 0 \;
;
#X scalar mymap 480 2840 900 Diener:89:TTrees:_A_tool_ float 0 \;;
#X scalar mymap 310 2720 900 Smith:72:SCORE:_A_musici float 0 \;;
#X scalar mymap 310 2890 900 Smith:72:SCORE:_A_musici float 0 \;;
#X scalar mymap 560 2730 900 Selfridge-Field:97:The_score_music float
0 \;;
#X scalar mymap 410 2790 900 Brinkman:82:Original_versio float 0 \;
;
#X scalar mymap 740 2800 900 McCurdy:15:Methods_of_writ float 0 \;
;
#X scalar mymap 770 5460 900 Cámara Halac:18:This_is_for_you 3 \;
;
#X scalar mymap 760 2150 900 Simonelli:17:Hearing_the_sel float 0 \;
;
#X scalar mymap 770 2180 900 Cámara Halac:18:A_spectral_expe 3 \;
;
#X scalar mymap 770 5890 900 Cámara Halac:18:A_spectral_expe 3 \;
;
#X scalar mymap 710 4410 900 Valle:12:TOWARDS_a_typol float 0 \;;
#X scalar mymap 710 4430 900 Valle:12:TOWARDS_a_typol float 0 \;;
#X scalar mymap 710 4440 900 Valle:12:TOWARDS_a_typol float 0 \;;
#X scalar mymap 370 2330 900 Buxton:78:The_use_of_hier float 0 \;;
#X scalar mymap 370 2350 900 Buxton:78:The_use_of_hier float 0 \;;
#X scalar mymap 370 2430 900 Buxton:78:The_use_of_hier float 0 \;;
#X scalar mymap 370 2440 900 Buxton:78:The_use_of_hier float 0 \;;
#X scalar mymap 370 2450 900 Buxton:78:The_use_of_hier float 0 \;;
#X scalar mymap 370 2370 900 Buxton:78:An_overview_of_ float 0 \;;
#X scalar mymap 370 2380 900 Buxton:78:An_overview_of_ float 0 \;;
#X scalar mymap 370 2400 900 Buxton:78:An_overview_of_ float 0 \;;
#X scalar mymap 390 2360 900 Buxton:80:"OBJED"_and_the float 0 \;;
#X scalar mymap 390 2740 900 Clements:80:Musical_data_st float 0 \;
;
#X scalar mymap 400 2900 900 Puckette:81:A_real-time_mus float 0 \;
;
#X scalar mymap 400 2780 900 Brinkman:81:Data_structures float 0 \;
;
#X scalar mymap 420 2700 900 Brinkman:83:A_design_for_a_ float 0 \;
;
#X scalar mymap 420 2810 900 Brinkman:83:A_design_for_a_ float 0 \;
;
#X scalar mymap 430 2820 900 Brinkman:84:A_data_structur float 0 \;
;
#X scalar mymap 440 890 900 Ames:85:Applications_of float 0 \;;
#X scalar mymap 450 3070 900 Boynton:86:Adding_a_graphi float 0 \;
;
#X scalar mymap 450 2940 900 Puckette:86:Interprocess_co float 0 \;
;
#X scalar mymap 450 2950 900 Puckette:86:Interprocess_co float 0 \;
;
#X scalar mymap 450 2960 900 Puckette:86:Interprocess_co float 0 \;
;
#X scalar mymap 450 2970 900 Puckette:86:Interprocess_co float 0 \;
;
#X scalar mymap 450 2520 900 Free:86:What_ever_happe float 0 \;;
#X scalar mymap 450 2550 900 Free:86:What_ever_happe float 0 \;;
#X scalar mymap 460 2750 900 Dydo:87:Data_structures float 0 \;;
#X scalar mymap 460 2510 900 Free:87:Towards_an_exte float 0 \;;
#X scalar mymap 460 2530 900 Free:87:Towards_an_exte float 0 \;;
#X scalar mymap 460 2990 900 Scaletti:87:Kyma:_An_object float 0 \;
;
#X scalar mymap 460 3000 900 Scaletti:87:Kyma:_An_object float 0 \;
;
#X scalar mymap 460 3010 900 Scaletti:87:Kyma:_An_object float 0 \;
;
#X scalar mymap 460 3020 900 Scaletti:87:Kyma:_An_object float 0 \;
;
#X scalar mymap 460 3050 900 Scaletti:87:Kyma:_An_object float 0 \;
;
#X scalar mymap 460 3080 900 Scaletti:87:Kyma:_An_object float 0 \;
;
#X scalar mymap 460 3090 900 Scaletti:87:Kyma:_An_object float 0 \;
;
#X scalar mymap 470 3320 900 Rodet:88:Diphone_sound_s float 0 \;;
#X scalar mymap 470 2540 900 Free:88:The_CAMP_music_ float 0 \;;
#X scalar mymap 470 2560 900 Free:88:The_CAMP_music_ float 0 \;;
#X scalar mymap 470 2570 900 Free:88:The_CAMP_music_ float 0 \;;
#X scalar mymap 470 2580 900 Free:88:The_CAMP_music_ float 0 \;;
#X scalar mymap 470 2830 900 Diener:88:TTrees:_An_acti float 0 \;;
#X scalar mymap 470 2850 900 Diener:88:TTrees:_An_acti float 0 \;;
#X scalar mymap 470 2870 900 Diener:88:TTrees:_An_acti float 0 \;;
#X scalar mymap 490 3170 900 Lindemann:90:ANIMAL-A_rapid_ float 0 \;
;
#X scalar mymap 510 2880 900 Diener:92:A_visual_progra float 0 \;;
#X scalar mymap 520 3340 900 Depalle:93:Generalized_dip float 0 \;
;
#X scalar mymap 550 3350 900 Rodet:96:Macintosh_graph float 0 \;;
#X scalar mymap 550 1940 900 Rossiter:96:A_system_for_th float 0 \;
;
#X scalar mymap 550 3290 900 McCartney:96:SuperCollider float 0 \;
;
#X scalar mymap 560 3360 900 Rodet:97:The_diphone_pro float 0 \;;
#X scalar mymap 560 3200 900 Garton:97:RTcmix_-_using_ float 0 \;;
#X scalar mymap 560 3240 900 Garton:97:RTcmix_-_using_ float 0 \;;
#X scalar mymap 560 3260 900 Garton:97:RTcmix_-_using_ float 0 \;;
#X scalar mymap 560 3270 900 Garton:97:RTcmix_-_using_ float 0 \;;
#X scalar mymap 560 3280 900 Garton:97:RTcmix_-_using_ float 0 \;;
#X scalar mymap 560 3210 900 Assayag:97:An_object_orien float 0 \;
;
#X scalar mymap 560 3110 900 Puckette:97:Pure_data float 0 \;;
#X scalar mymap 570 4180 900 Schöner:98:Data-driven_mod float 0 \;
;
#X scalar mymap 570 3300 900 McCartney:98:Continued_evolu float 0 \;
;
#X scalar mymap 570 3120 900 Zicarelli:98:An_extensible_r float 0 \;
;
#X scalar mymap 580 1650 900 Melucci:99:The_use_of_melo float 0 \;
;
#X scalar mymap 590 2030 900 Barrett:00:A_compositional float 0 \;
;
#X scalar mymap 590 3780 900 Choi:00:Embedding_a_sen float 0 \;;
#X scalar mymap 590 3800 900 Choi:00:Embedding_a_sen float 0 \;;
#X scalar mymap 590 3810 900 Choi:00:Embedding_a_sen float 0 \;;
#X scalar mymap 590 3820 900 Choi:00:Embedding_a_sen float 0 \;;
#X scalar mymap 590 3830 900 Choi:00:Embedding_a_sen float 0 \;;
#X scalar mymap 600 930 900 Mazzoni:01:A_fast_data_str float 0 \;;
#X scalar mymap 600 3700 900 Serafin:01:Data_driven_ide float 0 \;
;
#X scalar mymap 600 3670 900 Schloss:01:Towards_a_virtu float 0 \;
;
#X scalar mymap 600 3690 900 Schloss:01:Towards_a_virtu float 0 \;
;
#X scalar mymap 610 3160 900 Puckette:02:Using_pd_as_a_s float 0 \;
;
#X scalar mymap 610 3180 900 Puckette:02:Using_pd_as_a_s float 0 \;
;
#X scalar mymap 610 3190 900 Puckette:02:Using_pd_as_a_s float 0 \;
;
#X scalar mymap 610 3370 900 Osaka:02:The_sound_synth float 0 \;;
#X scalar mymap 610 3590 900 Vinet:02:The_CUIDADO_pro float 0 \;;
#X scalar mymap 610 2060 900 Sturm:02:Water_music:_So float 0 \;;
#X scalar mymap 620 3520 900 Ariza:03:Ornament_as_dat float 0 \;;
#X scalar mymap 620 3530 900 Ariza:03:Ornament_as_dat float 0 \;;
#X scalar mymap 620 3480 900 Kobayashi:03:Sound_clusterin float 0 \;
;
#X scalar mymap 620 3430 900 Schwarz:03:New_development float 0 \;
;
#X scalar mymap 630 3220 900 Bresson:04:SDIF_sound_desc float 0 \;
;
#X scalar mymap 630 4040 900 Bresson:04:SDIF_sound_desc float 0 \;
;
#X scalar mymap 630 4060 900 Bresson:04:SDIF_sound_desc float 0 \;
;
#X scalar mymap 630 1950 900 Ciardi:04:Real_time_sonif float 0 \;;
#X scalar mymap 630 2200 900 Yeo:04:SonART:_A_frame float 0 \;;
#X scalar mymap 640 1290 900 Xu:05:Semi-supervised float 0 \;;
#X scalar mymap 640 2210 900 Yeo:05:Application_of_ float 0 \;;
#X scalar mymap 640 3600 900 Vinet:05:The_semantic_hi float 0 \;;
#X scalar mymap 650 3840 900 Hamilton:06:Bioinformatic_r float 0 \;
;
#X scalar mymap 650 3850 900 Hamilton:06:Bioinformatic_r float 0 \;
;
#X scalar mymap 660 3940 900 Jones:07:A_hand_drumming float 0 \;;
#X scalar mymap 660 3950 900 Jones:07:A_hand_drumming float 0 \;;
#X scalar mymap 660 3630 900 Casey:07:Soundspotter_/_ float 0 \;;
#X scalar mymap 660 3640 900 Casey:07:Soundspotter_/_ float 0 \;;
#X scalar mymap 660 3610 900 Norman:07:DATA_jockey float 0 \;;
#X scalar mymap 680 3960 900 Schmeder:09:Efficient_gestu float 0 \;
;
#X scalar mymap 680 4030 900 Bullock:09:An_object_orien float 0 \;
;
#X scalar mymap 690 1310 900 Sanden:10:Perception_base float 0 \;;
#X scalar mymap 690 3570 900 Brent:10:A_timbre_analys float 0 \;;
#X scalar mymap 690 2100 900 Ballora:10:Sonification_of float 0 \;
;
#X scalar mymap 690 3230 900 Bresson:10:Processing_soun float 0 \;
;
#X scalar mymap 710 1980 900 Vogt:12:SOUNDS_of_simul float 0 \;;
#X scalar mymap 730 1960 900 Whalley:14:Broadening_tele float 0 \;
;
#X scalar mymap 730 3890 900 Whalley:14:Broadening_tele float 0 \;
;
#X scalar mymap 740 1970 900 Cádiz:15:Sonification_of float 0 \;;
#X scalar mymap 740 2220 900 Nardelli:15:Materialssoundm float 0 \;
;
#X scalar mymap 750 2070 900 Morawitz:16:Molecular_sonif float 0 \;
;
#X scalar mymap 750 2140 900 Schlei:16:The_things_of_s float 0 \;;
#X scalar mymap 760 2120 900 Lindborg:17:Pacific_bell_to float 0 \;
;
#X scalar mymap 760 2130 900 Lindborg:17:Pacific_bell_to float 0 \;
;
#X scalar mymap 760 2230 900 Fox:17:MadBPM:_A_modul float 0 \;;
#X scalar mymap 760 2240 900 Fox:17:MadBPM:_A_modul float 0 \;;
#X scalar mymap 720 1220 900 Bogdanov:13:Essentia:_An_au float 0 \;
;
#X scalar mymap 720 1230 900 Bogdanov:13:Essentia:_An_au float 0 \;
;
#X scalar mymap 640 2680 900 Sapp:05:Online_database float 0 \;;
#X scalar mymap 770 1830 900 Meseguer-Brocal:18:DALI:_A_large_d float
0 \;;
#X scalar mymap 770 1860 900 Wilkins:18:VocalSet:_A_sin float 0 \;
;
#X scalar mymap 770 1440 900 Humphrey:18:OpenMIC-2018:_A float 0 \;
;
#X scalar mymap 770 1840 900 Donahue:18:The_NES_music_d float 0 \;
;
#X scalar mymap 770 1600 900 Eremenko:18:Audio-aligned_j float 0 \;
;
#X scalar mymap 770 1850 900 Xi:18:GuitarSet:_A_da float 0 \;;
#X scalar mymap 760 1820 900 Vigliensoni:17:The_music_liste float 0
\;;
#X scalar mymap 760 1670 900 Crestel:17:A_database_link float 0 \;
;
#X scalar mymap 730 1480 900 Bittner:14:MedleyDB:_A_mul float 0 \;
;
#X scalar mymap 730 1560 900 Hamanaka:14:Musical_structu float 0 \;
;
#X scalar mymap 730 1570 900 Antila:14:The_VIS_framewo float 0 \;;
#X scalar mymap 730 1510 900 Kirlin:14:A_data_set_for_ float 0 \;;
#X scalar mymap 730 1400 900 Pesek:14:Introducing_a_d float 0 \;;
#X scalar mymap 760 1160 900 Fonseca:17:Freesound_datas float 0 \;
;
#X scalar mymap 760 1810 900 Defferrard:17:FMA:_A_dataset_ float 0
\;;
#X scalar mymap 710 1580 900 Proutskova:12:Breathy_or_reso float 0
\;;
#X scalar mymap 710 1760 900 Karaosmanoglu:12:A_turkish_makam float
0 \;;
#X scalar mymap 700 1500 900 Smith:11:Design_and_crea float 0 \;;
#X scalar mymap 700 1750 900 Bertin-Mahieux:11:The_million_son float
0 \;;
#X scalar mymap 720 1460 900 Hauger:13:The_million_mus float 0 \;;
#X scalar mymap 740 1550 900 Knees:15:Two_data_sets_f float 0 \;;
#X scalar mymap 740 1520 900 Devaney:15:Theme_and_varia float 0 \;
;
#X scalar mymap 670 1370 900 Hashida:08:A_new_music_dat float 0 \;
;
#X scalar mymap 670 1300 900 Jr.:08:The_latin_music float 0 \;;
#X scalar mymap 670 1740 900 Maxwell:08:A_music_databas float 0 \;
;
#X scalar mymap 660 1450 900 Yeh:07:Synthesized_pol float 0 \;;
#X scalar mymap 650 3650 900 Casey:06:Song_intersecti float 0 \;;
#X scalar mymap 640 1260 900 Homburg:05:A_benchmark_dat float 0 \;
;
#X scalar mymap 630 1730 900 Wüst:04:An_MPEG-7_datab float 0 \;;
#X scalar mymap 620 1720 900 Goto:03:RWC_music_datab float 0 \;;
#X scalar mymap 610 3580 900 Vinet:02:The_CUIDADO_pro float 0 \;;
#X scalar mymap 610 1710 900 Goto:02:RWC_music_datab float 0 \;;
#X scalar mymap 590 1690 900 Dunn:00:Beyond_VARIATIO float 0 \;;
#X scalar mymap 590 1700 900 Good:00:Representing_mu float 0 \;;
#X scalar mymap 10 550 900 Borges:42:Funes_el_memori float 0 \;;
#X scalar mymap 10 560 900 Borges:42:Funes_el_memori float 0 \;;
#X scalar mymap 10 4780 900 Borges:42:Funes_el_memori float 0 \;;
#X scalar mymap 540 5470 900 Born:95:Rationalizing_c float 0 \;;
#X scalar mymap 540 5480 900 Born:95:Rationalizing_c float 0 \;;
#X scalar mymap 470 120 900 Butler:88:Performative_ac float 0 \;;
#X scalar mymap 470 5140 900 Butler:88:Performative_ac float 0 \;;
#X scalar mymap 470 5150 900 Butler:88:Performative_ac float 0 \;;
#X scalar mymap 470 5160 900 Butler:88:Performative_ac float 0 \;;
#X scalar mymap 470 5170 900 Butler:88:Performative_ac float 0 \;;
#X scalar mymap 470 5180 900 Butler:88:Performative_ac float 0 \;;
#X scalar mymap 470 5190 900 Butler:88:Performative_ac float 0 \;;
#X scalar mymap 470 5200 900 Butler:88:Performative_ac float 0 \;;
#X scalar mymap 470 5210 900 Butler:88:Performative_ac float 0 \;;
#X scalar mymap 470 5220 900 Butler:88:Performative_ac float 0 \;;
#X scalar mymap 470 5230 900 Butler:88:Performative_ac float 0 \;;
#X scalar mymap 470 5260 900 Butler:88:Performative_ac float 0 \;;
#X scalar mymap 470 5330 900 Butler:88:Performative_ac float 0 \;;
#X scalar mymap 660 5340 900 Daniel:07:The_database:_A float 0 \;;
#X scalar mymap 540 110 900 Derrida:95:Archive_fever:_ float 0 \;;
#X scalar mymap 540 4860 900 Derrida:95:Archive_fever:_ float 0 \;
;
#X scalar mymap 540 4870 900 Derrida:95:Archive_fever:_ float 0 \;
;
#X scalar mymap 540 4880 900 Derrida:95:Archive_fever:_ float 0 \;
;
#X scalar mymap 540 4890 900 Derrida:95:Archive_fever:_ float 0 \;
;
#X scalar mymap 540 4900 900 Derrida:95:Archive_fever:_ float 0 \;
;
#X scalar mymap 540 4910 900 Derrida:95:Archive_fever:_ float 0 \;
;
#X scalar mymap 540 4920 900 Derrida:95:Archive_fever:_ float 0 \;
;
#X scalar mymap 540 4930 900 Derrida:95:Archive_fever:_ float 0 \;
;
#X scalar mymap 540 4940 900 Derrida:95:Archive_fever:_ float 0 \;
;
#X scalar mymap 540 4970 900 Derrida:95:Archive_fever:_ float 0 \;
;
#X scalar mymap 540 4980 900 Derrida:95:Archive_fever:_ float 0 \;
;
#X scalar mymap 540 5080 900 Derrida:95:Archive_fever:_ float 0 \;
;
#X scalar mymap 540 5090 900 Derrida:95:Archive_fever:_ float 0 \;
;
#X scalar mymap 540 5100 900 Derrida:95:Archive_fever:_ float 0 \;
;
#X scalar mymap 540 5120 900 Derrida:95:Archive_fever:_ float 0 \;
;
#X scalar mymap 370 100 900 Derrida:78:Writing_and_dif float 0 \;;
#X scalar mymap 370 4690 900 Derrida:78:Writing_and_dif float 0 \;
;
#X scalar mymap 370 4700 900 Derrida:78:Writing_and_dif float 0 \;
;
#X scalar mymap 370 4710 900 Derrida:78:Writing_and_dif float 0 \;
;
#X scalar mymap 370 4720 900 Derrida:78:Writing_and_dif float 0 \;
;
#X scalar mymap 370 4740 900 Derrida:78:Writing_and_dif float 0 \;
;
#X scalar mymap 370 4760 900 Derrida:78:Writing_and_dif float 0 \;
;
#X scalar mymap 370 4820 900 Derrida:78:Writing_and_dif float 0 \;
;
#X scalar mymap 370 4840 900 Derrida:78:Writing_and_dif float 0 \;
;
#X scalar mymap 370 4850 900 Derrida:78:Writing_and_dif float 0 \;
;
#X scalar mymap 630 6120 900 Eco:04:The_poetics_of_ float 0 \;;
#X scalar mymap 740 4210 900 Gratton:15:The_nancy_dicti float 0 \;
;
#X scalar mymap 740 4220 900 Gratton:15:The_nancy_dicti float 0 \;
;
#X scalar mymap 740 4230 900 Gratton:15:The_nancy_dicti float 0 \;
;
#X scalar mymap 740 4270 900 Gratton:15:The_nancy_dicti float 0 \;
;
#X scalar mymap 740 4730 900 Gratton:15:The_nancy_dicti float 0 \;
;
#X scalar mymap 740 6100 900 Gratton:15:The_nancy_dicti float 0 \;
;
#X scalar mymap 520 570 900 Hayles:93:The_materiality float 0 \;;
#X scalar mymap 520 580 900 Hayles:93:The_materiality float 0 \;;
#X scalar mymap 520 600 900 Hayles:93:The_materiality float 0 \;;
#X scalar mymap 180 5400 900 Hiller:59:Experimental_mu float 0 \;;
#X scalar mymap 180 5850 900 Hiller:59:Experimental_mu float 0 \;;
#X scalar mymap 660 310 900 Klein:07:Waiting_for_the float 0 \;;
#X scalar mymap 660 320 900 Klein:07:Waiting_for_the float 0 \;;
#X scalar mymap 660 330 900 Klein:07:Waiting_for_the float 0 \;;
#X scalar mymap 660 340 900 Klein:07:Waiting_for_the float 0 \;;
#X scalar mymap 490 80 900 Latour:90:On_actor-networ float 0 \;;
#X scalar mymap 490 4280 900 Latour:90:On_actor-networ float 0 \;;
#X scalar mymap 490 4290 900 Latour:90:On_actor-networ float 0 \;;
#X scalar mymap 490 4300 900 Latour:90:On_actor-networ float 0 \;;
#X scalar mymap 490 4320 900 Latour:90:On_actor-networ float 0 \;;
#X scalar mymap 490 4330 900 Latour:90:On_actor-networ float 0 \;;
#X scalar mymap 490 4340 900 Latour:90:On_actor-networ float 0 \;;
#X scalar mymap 490 4350 900 Latour:90:On_actor-networ float 0 \;;
#X scalar mymap 490 4360 900 Latour:90:On_actor-networ float 0 \;;
#X scalar mymap 490 4370 900 Latour:90:On_actor-networ float 0 \;;
#X scalar mymap 490 4510 900 Latour:90:On_actor-networ float 0 \;;
#X scalar mymap 490 4520 900 Latour:90:On_actor-networ float 0 \;;
#X scalar mymap 490 4530 900 Latour:90:On_actor-networ float 0 \;;
#X scalar mymap 490 4540 900 Latour:90:On_actor-networ float 0 \;;
#X scalar mymap 490 4550 900 Latour:90:On_actor-networ float 0 \;;
#X scalar mymap 490 4570 900 Latour:90:On_actor-networ float 0 \;;
#X scalar mymap 490 4580 900 Latour:90:On_actor-networ float 0 \;;
#X scalar mymap 490 4610 900 Latour:90:On_actor-networ float 0 \;;
#X scalar mymap 490 4620 900 Latour:90:On_actor-networ float 0 \;;
#X scalar mymap 490 4650 900 Latour:90:On_actor-networ float 0 \;;
#X scalar mymap 520 4280 900 Latour:93:We_have_never_b float 0 \;;
#X scalar mymap 590 5790 900 Lewis:00:Too_many_notes: float 0 \;;
#X scalar mymap 600 20 900 Manovich:01:The_language_of float 0 \;;
#X scalar mymap 600 160 900 Manovich:01:The_language_of float 0 \;
;
#X scalar mymap 600 170 900 Manovich:01:The_language_of float 0 \;
;
#X scalar mymap 600 180 900 Manovich:01:The_language_of float 0 \;
;
#X scalar mymap 600 190 900 Manovich:01:The_language_of float 0 \;
;
#X scalar mymap 600 220 900 Manovich:01:The_language_of float 0 \;
;
#X scalar mymap 600 230 900 Manovich:01:The_language_of float 0 \;
;
#X scalar mymap 600 240 900 Manovich:01:The_language_of float 0 \;
;
#X scalar mymap 600 480 900 Manovich:01:The_language_of float 0 \;
;
#X scalar mymap 600 610 900 Manovich:01:The_language_of float 0 \;
;
#X scalar mymap 600 740 900 Manovich:01:The_language_of float 0 \;
;
#X scalar mymap 600 750 900 Manovich:01:The_language_of float 0 \;
;
#X scalar mymap 600 760 900 Manovich:01:The_language_of float 0 \;
;
#X scalar mymap 500 90 900 Nancy:91:The_inoperative float 0 \;;
#X scalar mymap 500 4470 900 Nancy:91:The_inoperative float 0 \;;
#X scalar mymap 500 4480 900 Nancy:91:The_inoperative float 0 \;;
#X scalar mymap 500 4490 900 Nancy:91:The_inoperative float 0 \;;
#X scalar mymap 500 4500 900 Nancy:91:The_inoperative float 0 \;;
#X scalar mymap 500 4590 900 Nancy:91:The_inoperative float 0 \;;
#X scalar mymap 500 4600 900 Nancy:91:The_inoperative float 0 \;;
#X scalar mymap 500 4630 900 Nancy:91:The_inoperative float 0 \;;
#X scalar mymap 500 4680 900 Nancy:91:The_inoperative float 0 \;;
#X scalar mymap 660 60 900 Nancy:07:Listening float 0 \;;
#X scalar mymap 660 70 900 Nancy:07:Listening float 0 \;;
#X scalar mymap 660 4200 900 Nancy:07:Listening float 0 \;;
#X scalar mymap 660 4240 900 Nancy:07:Listening float 0 \;;
#X scalar mymap 660 4250 900 Nancy:07:Listening float 0 \;;
#X scalar mymap 660 4260 900 Nancy:07:Listening float 0 \;;
#X scalar mymap 660 4460 900 Nancy:07:Listening float 0 \;;
#X scalar mymap 660 810 900 Paul:07:The_database_as float 0 \;;
#X scalar mymap 600 5410 900 Roads:01:Microsound float 0 \;;
#X scalar mymap 600 5420 900 Roads:01:Microsound float 0 \;;
#X scalar mymap 520 5300 900 Vaggione:93:Determinism_and float 0 \;
;
#X scalar mymap 520 5320 900 Vaggione:93:Determinism_and float 0 \;
;
#X scalar mymap 630 5990 900 Varese:04:The_liberation_ float 0 \;;
#X scalar mymap 630 6000 900 Varese:04:The_liberation_ float 0 \;;
#X scalar mymap 50 780 900 von Neumann:46:Preliminary_dis 3 \;;
#X scalar mymap 50 790 900 von Neumann:46:Preliminary_dis 3 \;;
#X scalar mymap 50 800 900 von Neumann:46:Preliminary_dis 3 \;;
#X scalar mymap 660 200 900 Weinbren:07:Ocean float 0 \;;
#X scalar mymap 660 210 900 Weinbren:07:Ocean float 0 \;;
#X scalar mymap 660 770 900 Weinbren:07:Ocean float 0 \;;
#X scalar mymap 510 2410 900 Xenakis:92:Formalized_musi float 0 \;
;
#X scalar mymap 510 5400 900 Xenakis:92:Formalized_musi float 0 \;
;
#X scalar mymap 510 5530 900 Xenakis:92:Formalized_musi float 0 \;
;
#X scalar mymap 510 5540 900 Xenakis:92:Formalized_musi float 0 \;
;
#X scalar mymap 510 5550 900 Xenakis:92:Formalized_musi float 0 \;
;
#X scalar mymap 510 5560 900 Xenakis:92:Formalized_musi float 0 \;
;
#X scalar mymap 510 5570 900 Xenakis:92:Formalized_musi float 0 \;
;
#X scalar mymap 510 5580 900 Xenakis:92:Formalized_musi float 0 \;
;
#X scalar mymap 510 5630 900 Xenakis:92:Formalized_musi float 0 \;
;
#X scalar mymap 510 5750 900 Xenakis:92:Formalized_musi float 0 \;
;
#X scalar mymap 510 5770 900 Xenakis:92:Formalized_musi float 0 \;
;
#X scalar mymap 700 2470 900 Flusser:11:Into_the_univer float 0 \;
;
#X scalar mymap 700 2480 900 Flusser:11:Into_the_univer float 0 \;
;
#X scalar mymap 700 2490 900 Flusser:11:Into_the_univer float 0 \;
;
#X scalar mymap 700 2500 900 Flusser:11:Into_the_univer float 0 \;
;
#X scalar mymap 700 350 900 Poster:11:Introduction float 0 \;;
#X scalar mymap 630 50 900 Hansen:04:New_philosophy_ float 0 \;;
#X scalar mymap 630 460 900 Hansen:04:New_philosophy_ float 0 \;;
#X scalar mymap 630 470 900 Hansen:04:New_philosophy_ float 0 \;;
#X scalar mymap 630 490 900 Hansen:04:New_philosophy_ float 0 \;;
#X scalar mymap 630 500 900 Hansen:04:New_philosophy_ float 0 \;;
#X scalar mymap 610 280 900 Hansen:02:Cinema_beyond_c float 0 \;;
#X scalar mymap 610 290 900 Hansen:02:Cinema_beyond_c float 0 \;;
#X scalar mymap 610 300 900 Hansen:02:Cinema_beyond_c float 0 \;;
#X scalar mymap 610 510 900 Hansen:02:Cinema_beyond_c float 0 \;;
#X scalar mymap 610 520 900 Hansen:02:Cinema_beyond_c float 0 \;;
#X scalar mymap 610 530 900 Hansen:02:Cinema_beyond_c float 0 \;;
#X scalar mymap 610 540 900 Hansen:02:Cinema_beyond_c float 0 \;;
#X scalar mymap 580 40 900 Hayles:99:How_we_became_p float 0 \;;
#X scalar mymap 580 360 900 Hayles:99:How_we_became_p float 0 \;;
#X scalar mymap 580 370 900 Hayles:99:How_we_became_p float 0 \;;
#X scalar mymap 580 380 900 Hayles:99:How_we_became_p float 0 \;;
#X scalar mymap 580 390 900 Hayles:99:How_we_became_p float 0 \;;
#X scalar mymap 580 400 900 Hayles:99:How_we_became_p float 0 \;;
#X scalar mymap 580 410 900 Hayles:99:How_we_became_p float 0 \;;
#X scalar mymap 580 420 900 Hayles:99:How_we_became_p float 0 \;;
#X scalar mymap 580 430 900 Hayles:99:How_we_became_p float 0 \;;
#X scalar mymap 580 440 900 Hayles:99:How_we_became_p float 0 \;;
#X scalar mymap 580 450 900 Hayles:99:How_we_became_p float 0 \;;
#X scalar mymap 580 5240 900 Hayles:99:How_we_became_p float 0 \;;
#X scalar mymap 660 30 900 Vesna:07:Database_aesthe float 0 \;;
#X scalar mymap 660 3860 900 Nakamoto:07:Circle_canon_ch float 0 \;
;
#X scalar mymap 660 3870 900 Nakamoto:07:Circle_canon_ch float 0 \;
;
#X scalar mymap 660 3880 900 Nakamoto:07:Circle_canon_ch float 0 \;
;
#X scalar mymap 660 4090 900 Nilson:07:Live_coding_pra float 0 \;;
#X scalar mymap 660 3970 900 Young:07:Bowstroke_datab float 0 \;;
#X scalar mymap 670 4170 900 Loviscach:08:Programming_a_m float 0 \;
;
#X scalar mymap 670 3660 900 Price:08:Database_and_ma float 0 \;;
#X scalar mymap 680 3390 900 Bullock:09:Towards_a_human float 0 \;
;
#X scalar mymap 690 3980 900 Hochenbaum:10:Multimodal_musi float 0
\;;
#X scalar mymap 700 3400 900 Bullock:11:Integra_live_:_ float 0 \;
;
#X scalar mymap 700 3760 900 Caramiaux:11:Sound_selection float 0 \;
;
#X scalar mymap 700 3990 900 Garcı́a:11:Acquisition_and float 0 \;
;
#X scalar mymap 710 1770 900 Jaimovich:12:The_emotion_in_ float 0 \;
;
#X scalar mymap 710 3470 900 Schwarz:12:The_sound_space float 0 \;
;
#X scalar mymap 720 3900 900 Liu:13:Cloud_bridge:_A float 0 \;;
#X scalar mymap 720 1780 900 Mital:13:Mining_unlabele float 0 \;;
#X scalar mymap 730 3770 900 Cartwright:14:SynthAssist:_Qu float 0
\;;
#X scalar mymap 730 4110 900 Roberts:14:Rapid_creation_ float 0 \;
;
#X scalar mymap 730 3910 900 Taylor:14:Simplified_expr float 0 \;;
#X scalar mymap 740 1790 900 Bortz:15:Emotion_in_moti float 0 \;;
#X scalar mymap 740 1800 900 Jaimovich:15:Creating_biosig float 0 \;
;
#X scalar mymap 750 1800 900 Nort:16:Towards_a_mappa float 0 \;;
#X scalar mymap 750 3510 900 Nuanàin:16:An_interactive_ float 0 \;
;
#X scalar mymap 760 4000 900 Visi:17:A_knowledge-bas float 0 \;;
#X scalar mymap 760 4160 900 Vogl:17:An_intelligent_ float 0 \;;
#X scalar mymap 770 4120 900 Xambo:18:Live_repurposin float 0 \;;
#X scalar mymap 660 1470 900 Karydis:07:Horizontal_and_ float 0 \;
;
#X scalar mymap 710 1180 900 Xambo:12:Factors_in_Huma float 0 \;;
#X scalar mymap 770 1390 900 Hashida:18:CrestMusePEDB_2 float 0 \;
;
#X scalar mymap 690 1170 900 Correia:10:AV_Clash_-_Onli float 0 \;
;
#X scalar mymap 700 4050 900 Nymoen:11:A_Toolbox_for_S float 0 \;;
#X scalar mymap 640 1530 900 Haus:05:MX_structural_m float 0 \;;
#X scalar mymap 770 1150 900 Poddar:18:#nowplaying-RS float 0 \;;
#X scalar mymap 770 1680 900 Guedes:18:Modeling_Carnat float 0 \;;
#X scalar mymap 760 1590 900 Miron:17:Generating_Data float 0 \;;
#X scalar mymap 760 1380 900 Hashida:17:Constructing_PE float 0 \;
;
#X scalar mymap 680 3460 900 Schwarz:09:Sound_Search_by float 0 \;
;
#X scalar mymap 650 3540 900 Carpentier:06:Imitative_and_G float 0
\;;
#X scalar mymap 730 1420 900 Hu:14:A_Study_on_Cros float 0 \;;
#X scalar mymap 740 1430 900 Corona:15:An_Exploration_ float 0 \;;
#X scalar mymap 650 2320 900 Vicinanza:06:A_Java_Framewor float 0 \;
;
#X scalar mymap 770 1270 900 Queiroz:18:Relative_DTW_Em float 0 \;
;
#X scalar mymap 710 1610 900 Cartwright:12:Building_a_Musi float 0
\;;
#X scalar mymap 700 1870 900 Walker:11:Theory_of_sonif float 0 \;;
#X scalar mymap 700 1880 900 Walker:11:Theory_of_sonif float 0 \;;
#X scalar mymap 700 1890 900 Walker:11:Theory_of_sonif float 0 \;;
#X scalar mymap 700 1900 900 Walker:11:Theory_of_sonif float 0 \;;
#X scalar mymap 700 1910 900 Walker:11:Theory_of_sonif float 0 \;;
#X scalar mymap 700 1920 900 Walker:11:Theory_of_sonif float 0 \;;
#X scalar mymap 700 1930 900 Carlile:11:Psychoacoustics float 0 \;
;
#X scalar mymap 600 1250 900 Yang:01:Music_database_ float 0 \;;
#X scalar mymap 540 850 900 Silberschatz:95:Database_resear float 0
\;;
#X coords 0 0 0.8 0.8 0 0 0;
#X restore 26 21 pd data;
#N canvas 733 468 547 310 template 0;
#X obj 25 99 filledcurve col 0 0 0 0 0 10 10 10 10 0 0 0;
#X obj 28 20 struct mymap float x float y float col symbol name;
#X obj 28 78 drawsymbol name 14 0 0;
#X restore 26 48 pd template;
#N canvas 521 197 693 471 appender 0;
#X msg 28 72 traverse pd-data \, bang;
#X obj 28 94 pointer;
#X obj 28 116 t b p;
#X msg 28 168 10 10 900 3;
#X msg 136 110 \; pd-data clear;
#X obj 28 190 append mymap x y col s;
#X obj 175 276 set -symbol mymap name;
#X obj 190 202 pointer;
#X obj 190 224 t b p;
#X msg 178 248 symbol testNAME;
#X msg 190 180 traverse pd-data \, next;
#X connect 0 0 1 0;
#X connect 1 0 2 0;
#X connect 2 0 3 0;
#X connect 2 1 5 4;
#X connect 3 0 5 0;
#X connect 7 0 8 0;
#X connect 8 0 9 0;
#X connect 8 1 6 1;
#X connect 9 0 6 0;
#X connect 10 0 7 0;
#X restore 29 103 pd appender;
#N canvas 470 309 569 469 grid 0;
#X msg 26 55 traverse pd-data \, bang;
#X obj 26 77 pointer;
#X obj 26 99 t b p;
#X msg 367 19 \; pd-data clear;
#X obj 26 243 append mygrid x;
#X obj 26 143 iterate;
#X obj 26 187 + 10;
#X obj 24 16 struct mygrid float x;
#X msg 240 121 2019 1942;
#X obj 240 143 -;
#X floatatom 240 165 5 0 0 0 - - -;
#X msg 26 121 77;
#X obj 26 165 * 5;
#X obj 60 304 drawpolygon -xe 0 0 x 10 x 6210;
#X connect 0 0 1 0;
#X connect 1 0 2 0;
#X connect 2 0 11 0;
#X connect 2 1 4 1;
#X connect 5 0 12 0;
#X connect 6 0 4 0;
#X connect 8 0 9 0;
#X connect 9 0 10 0;
#X connect 11 0 5 0;
#X connect 12 0 6 0;
#X restore 26 69 pd grid;
#X msg 273 77 \; pd-data write mydata.txt;
#X msg 139 132 \; pd-data read data.txt;
#X msg 123 77 \; pd-data read mydata.txt;
#X msg 288 161 \; pd-data write data.txt;
#X obj 22 275 scroll pd-data;
#X msg 19 129 bang;
#X obj 19 151 counter;
#X msg 19 173 symbol timeline-\$1.ps;
#X msg 120 17 \; pd-data print stuff.ps;
#X msg 17 202 yaxis -9 \; pd-data print \$1;
#X msg 67 130 0;
#X msg 159 226;
#X connect 9 0 10 0;
#X connect 10 0 11 0;
#X connect 11 0 13 0;
#X connect 13 0 8 0;
#X connect 14 0 10 0;
